/* XPM */
static char * wicon_xpm[] = {
"16 16 5 1",
" 	c None",
".	c #000000",
"+	c #9F9F9F",
"@	c #FFFFFF",
"#	c #CDD5E2",
"...+@@+..+@@+...",
".#####+..+#####.",
".### ..... ####.",
"+####.....+####+",
"@####+....+####@",
"@####+....+####@",
"@####......####@",
"@###+......+###@",
"@###..#..#..###@",
"@##..##..##..##@",
"@##.+##..##+.##@",
"@#..###..###..#@",
"+#.+###..###+.#+",
"...####..####...",
".+#####+.#####+.",
"...+@@@@.@@@+..."};
